<?xml version="1.0" encoding="UTF-8" standalone="no"?>
<svg
   xmlns:dc="http://purl.org/dc/elements/1.1/"
   xmlns:cc="http://creativecommons.org/ns#"
   xmlns:rdf="http://www.w3.org/1999/02/22-rdf-syntax-ns#"
   xmlns:svg="http://www.w3.org/2000/svg"
   xmlns="http://www.w3.org/2000/svg"
   xmlns:sodipodi="http://sodipodi.sourceforge.net/DTD/sodipodi-0.dtd"
   xmlns:inkscape="http://www.inkscape.org/namespaces/inkscape"
   id="ade8c9af-7e2e-4eda-b5c8-b06129257226"
   data-name="Layer 1"
   width="1076.06371"
   height="755.2279"
   viewBox="0 0 1076.06371 755.2279"
   version="1.1"
   sodipodi:docname="webDev.svg"
   inkscape:version="1.0.2 (1.0.2+r75+1)">
  <metadata
     id="metadata97">
    <rdf:RDF>
      <cc:Work
         rdf:about="">
        <dc:format>image/svg+xml</dc:format>
        <dc:type
           rdf:resource="http://purl.org/dc/dcmitype/StillImage" />
        <dc:title>web_developer</dc:title>
      </cc:Work>
    </rdf:RDF>
  </metadata>
  <defs
     id="defs95" />
  <sodipodi:namedview
     pagecolor="#ffffff"
     bordercolor="#666666"
     borderopacity="1"
     objecttolerance="10"
     gridtolerance="10"
     guidetolerance="10"
     inkscape:pageopacity="0"
     inkscape:pageshadow="2"
     inkscape:window-width="1366"
     inkscape:window-height="713"
     id="namedview93"
     showgrid="false"
     inkscape:zoom="0.52993598"
     inkscape:cx="390.21164"
     inkscape:cy="56.755473"
     inkscape:window-x="0"
     inkscape:window-y="27"
     inkscape:window-maximized="1"
     inkscape:current-layer="g988"
     inkscape:document-rotation="0" />
  <title
     id="title2">web_developer</title>
  <g
     id="g988"
     style="opacity:0.72178202">
    <circle
       cx="-431.99878"
       cy="-246.49515"
       r="65"
       fill="#f2f2f2"
       id="circle48" />
    <path
       d="m 104.86716,-330.91246 h -364.24868 v -76.21944 h 364.24868 z m -362.64406,-1.60466 h 361.03944 v -73.0102 H -257.7769 Z"
       fill="#3f3d56"
       id="path50" />
    <rect
       x="-284.25311"
       y="-391.888"
       width="362.64407"
       height="74.614822"
       fill="#6c63ff"
       id="rect52" />
    <circle
       cx="-513.49768"
       cy="-468.7092"
       r="5.61624"
       fill="#6c63ff"
       id="circle54" />
    <circle
       cx="-494.24219"
       cy="-468.7092"
       r="5.61624"
       fill="#6c63ff"
       id="circle56" />
    <circle
       cx="-474.98676"
       cy="-468.7092"
       r="5.61624"
       fill="#6c63ff"
       id="circle58" />
    <path
       d="M 146.00122,-44.287247 H -529.54371 V -483.95307 h 675.54493 z m -673.94031,-1.60462 H 144.3966 V -482.34845 h -672.33569 z"
       fill="#3f3d56"
       id="path60" />
    <rect
       x="-528.74139"
       y="-459.61502"
       width="673.94031"
       height="1.60462"
       fill="#3f3d56"
       id="rect62" />
    <path
       d="m -511.89289,-464.69763 a 6.41848,6.41848 0 1 1 6.41848,-6.41848 6.42592,6.42592 0 0 1 -6.41848,6.41848 z m 0,-11.23234 a 4.81386,4.81386 0 1 0 4.81386,4.81386 4.81945,4.81945 0 0 0 -4.81386,-4.81386 z"
       fill="#3f3d56"
       id="path64" />
    <path
       d="m -492.63745,-464.69763 a 6.41848,6.41848 0 1 1 6.41848,-6.41848 6.42592,6.42592 0 0 1 -6.41848,6.41848 z m 0,-11.23234 a 4.81386,4.81386 0 1 0 4.81386,4.81386 4.81945,4.81945 0 0 0 -4.81386,-4.81386 z"
       fill="#3f3d56"
       id="path66" />
    <path
       d="m -473.38201,-464.69763 a 6.41848,6.41848 0 1 1 6.41847,-6.41849 6.42593,6.42593 0 0 1 -6.41847,6.41849 z m 0,-11.23234 a 4.81386,4.81386 0 1 0 4.81385,4.81386 4.81946,4.81946 0 0 0 -4.81385,-4.81386 z"
       fill="#3f3d56"
       id="path68" />
    <rect
       x="-317.95331"
       y="-458.81271"
       width="1.60462"
       height="414.34564"
       fill="#3f3d56"
       id="rect70" />
    <rect
       x="-241.32959"
       y="-255.09418"
       width="117.93955"
       height="16.0462"
       fill="#f2f2f2"
       id="rect72" />
    <rect
       x="-55.995972"
       y="-255.09418"
       width="117.93955"
       height="16.0462"
       fill="#f2f2f2"
       id="rect74" />
    <path
       d="m -116.16921,-246.26877 h -119.54417 v -17.65082 h 119.54417 z m -117.93955,-1.60462 h 116.33493 v -14.44158 h -116.33493 z"
       fill="#3f3d56"
       id="path76" />
    <rect
       x="-241.32959"
       y="-130.73615"
       width="117.93955"
       height="16.0462"
       fill="#f2f2f2"
       id="rect78" />
    <path
       d="m -116.16921,-121.91074 h -119.54417 v -17.65081 h 119.54417 z m -117.93955,-1.60462 h 116.33493 v -14.44157 h -116.33493 z"
       fill="#3f3d56"
       id="path80" />
    <rect
       x="-240.92841"
       y="-194.51978"
       width="303.27313"
       height="16.0462"
       fill="#f2f2f2"
       id="rect82" />
    <path
       d="M 69.565528,-184.08975 H -235.31223 v -17.65082 H 69.565528 Z m -303.273168,-1.60462 H 67.960878 v -14.44158 H -233.70764 Z"
       fill="#3f3d56"
       id="path84" />
    <path
       d="m 69.164358,-246.26877 h -119.54416 v -17.65082 h 119.54416 z m -117.93955,-1.60462 h 116.33493 v -14.44158 h -116.33492 z"
       fill="#3f3d56"
       id="path86" />
    <path
       d="m -420.99878,-198.49512 a 66,66 0 1 1 66,-66 66.07468,66.07468 0 0 1 -66,66 z m 0,-130 a 64,64 0 1 0 64,64 64.0727,64.0727 0 0 0 -64,-64 z"
       fill="#3f3d56"
       id="path88" />
    <g
       id="g3967"
       style="opacity:0.46">
      <path
         d="M926.11393,774.80937c-6.98452,26.59789-31.459,43.21966-31.459,43.21966s-13.15033-26.50193-6.16581-53.09982,31.459-43.21966,31.459-43.21966S933.09845,748.21148,926.11393,774.80937Z"
         transform="translate(-61.96814 -72.38605)"
         fill="#3f3d56"
         id="path4" />
      <path
         d="M915.52,769.18266c-19.56251,19.32716-21.75117,48.83128-21.75117,48.83128s29.52845-1.83141,49.091-21.15858,21.75116-48.83129,21.75116-48.83129S935.08248,749.85549,915.52,769.18266Z"
         transform="translate(-61.96814 -72.38605)"
         fill="#6c63ff"
         id="path6" />
      <g
         id="g3941">
        <path
           d="M206.70221,674.19438h36.8414l90.78774-35.52564s64.47245-26.31528,59.20939,23.68376-14.47341,117.103-14.47341,117.103-28.94681-13.15764-44.736-9.21035-5.26306-80.26162-5.26306-80.26162-128.9449,61.84092-140.78678,53.94634-14.4734-63.15669-14.4734-63.15669Z"
           fill="#2f2e41"
           id="path8"
           transform="translate(-61.96814 -72.38605)" />
        <path
           d="M206.70221,674.19438h36.8414l90.78774-35.52564s64.47245-26.31528,59.20939,23.68376-14.47341,117.103-14.47341,117.103-28.94681-13.15764-44.736-9.21035-5.26306-80.26162-5.26306-80.26162-128.9449,61.84092-140.78678,53.94634-14.4734-63.15669-14.4734-63.15669Z"
           opacity="0.1"
           id="path10"
           transform="translate(-61.96814 -72.38605)" />
        <path
           d="M264.74607,558.82036l44.58576,64.05921L413.2772,709.72s96.0508,22.368,82.89315,38.15717S402.75109,732.088,402.75109,732.088s-119.73455-86.84044-123.68184-93.41927S231.70174,570.249,231.70174,570.249Z"
           fill="#a0616a"
           id="path12"
           transform="translate(-61.96814 -72.38605)" />
        <path
           d="M264.74607,558.82036l44.58576,64.05921L413.2772,709.72s96.0508,22.368,82.89315,38.15717S402.75109,732.088,402.75109,732.088s-119.73455-86.84044-123.68184-93.41927S231.70174,570.249,231.70174,570.249Z"
           opacity="0.1"
           id="path14"
           transform="translate(-61.96814 -72.38605)" />
        <path
           d="M238.28056,507.09232l28.94681,56.57786s-6.57882,27.63105-17.10494,30.26258-55.26209-34.20987-55.26209-34.20987Z"
           fill="#d0cde1"
           id="path16"
           transform="translate(-61.96814 -72.38605)" />
        <path
           d="M238.28056,507.09232l28.94681,56.57786s-6.57882,27.63105-17.10494,30.26258-55.26209-34.20987-55.26209-34.20987Z"
           opacity="0.1"
           id="path18"
           transform="translate(-61.96814 -72.38605)" />
        <path
           d="M591.4193,644.90044,599.97,680.172a2.20311,2.20311,0,0,1-.04279,1.19048L561.13956,802.57374a2.20306,2.20306,0,0,1-4.28722-.42269l-5.36581-47.21916a2.203,2.203,0,0,1,.09431-.93128L587.1836,644.737A2.20306,2.20306,0,0,1,591.4193,644.90044Z"
           fill="#2f2e41"
           id="path20"
           transform="translate(-61.96814 -72.38605)" />
        <polygon
           points="526.306 575.493 534.2 605.756 499.99 716.28 492.096 682.07 526.306 575.493"
           fill="#f2f2f2"
           id="polygon22" />
        <path
           d="M415.90873,812.34963c1.31577,3.94729,136.83949-1.31577,138.15525-2.63153a28.56086,28.56086,0,0,0,2.89462-5.26306c1.2369-2.63153,2.36844-5.26306,2.36844-5.26306L554.064,756.58753l-134.208-4.76306s-3.35527,36.10458-4.03949,52.63057C415.64564,808.626,415.64564,811.56012,415.90873,812.34963Z"
           fill="#2f2e41"
           id="path24"
           transform="translate(-61.96814 -72.38605)" />
        <polygon
           points="474.991 689.965 477.622 726.806 418.413 726.806 418.413 689.965 474.991 689.965"
           opacity="0.1"
           id="polygon26" />
        <polygon
           points="398.677 701.806 399.03 701.736 397.361 717.596 364.467 717.596 364.467 701.806 398.677 701.806"
           opacity="0.1"
           id="polygon28" />
        <path
           d="M415.90873,812.34963c1.31577,3.94729,136.83949-1.31577,138.15525-2.63153a28.56086,28.56086,0,0,0,2.89462-5.26306H415.81654C415.64564,808.626,415.64564,811.56012,415.90873,812.34963Z"
           opacity="0.1"
           id="path30"
           transform="translate(-61.96814 -72.38605)" />
        <circle
           cx="196.04888"
           cy="357.07618"
           r="59.20939"
           fill="#a0616a"
           id="circle32" />
        <path
           d="M254.06973,482.0928s-19.73647,34.20987-23.68376,52.63057-59.20939-36.8414-59.20939-36.8414l-7.2367-19.07858s51.97268-24.34164,48.02539-44.07811S254.06973,482.0928,254.06973,482.0928Z"
           fill="#a0616a"
           id="path34"
           transform="translate(-61.96814 -72.38605)" />
        <path
           d="M264.59584,584.72241l53.94634,71.05127,128.9449,96.05079s93.41926,19.73647,72.367,34.20987-81.57738-13.15764-81.57738-13.15764S308.01606,703.14119,280.385,674.19438s-78.94585-77.63009-78.94585-77.63009Z"
           fill="#a0616a"
           id="path36"
           transform="translate(-61.96814 -72.38605)" />
        <path
           d="M192.22881,695.24661,208.018,720.24613l94.2313-29.64581c20.67581-6.50474,43.34783-4.11124,61.68676,7.44229,16.44706,10.36164,26.97317,26.80869,3.28941,51.15033-47.36751,48.68328-78.94585,22.368-78.94585,22.368S129.07212,846.5595,102.75684,809.7181s-27.631-55.2621-27.631-55.2621S176.43964,691.29931,192.22881,695.24661Z"
           fill="#2f2e41"
           id="path38"
           transform="translate(-61.96814 -72.38605)" />
        <path
           d="M389.59345,782.08705s42.10445,27.63105-7.89459,40.78869-86.84044-5.26306-86.84044-5.26306-43.42022,0-43.42022-22.368,14.47341-24.99952,14.47341-24.99952l44.736,6.57882S364.59393,762.35059,389.59345,782.08705Z"
           fill="#d0cde1"
           id="path40"
           transform="translate(-61.96814 -72.38605)" />
        <path
           d="M306.58925,414.56777c4.03,1.79653,8.02621,3.92291,12.40755,4.4444s9.37055-1.00819,11.44376-4.903c1.11982-2.10373,1.24778-4.57826,1.3-6.96089.15849-7.22517-.36406-15.03591-4.94264-20.6274-2.9139-3.55854-7.16747-5.80183-10.18374-9.274-2.161-2.48761-3.59924-5.50284-5.14786-8.41141-5.866-11.01725-14.55128-21.60559-26.62195-24.78175-5.04041-1.32629-10.328-1.26157-15.53945-1.188l-30.39725.42884c-4.91906.0694-9.914.15005-14.623,1.57383-9.784,2.95823-16.90779,11.18591-23.43216,19.05427-4.88119,5.88668-9.7753,11.83425-13.43862,18.54685a65.07888,65.07888,0,0,0-7.71423,31.88675,29.83261,29.83261,0,0,0,1.09276,8.43732,46.82177,46.82177,0,0,0,3.31627,7.28423c5.70049,11.19673,9.08523,25.18219,2.66543,35.98258,11.15187-4.55542,22.18591-10.52835,29.54232-20.0677,3.29093-4.26748,5.87181-9.26316,10.25758-12.39472s11.532-3.40321,14.34592,1.1928a12.85719,12.85719,0,0,1,1.4508,6.02242c.20551,3.44983.1999,7.03258,1.66258,10.16374s4.94686,5.65758,8.27337,4.72061c5.72869-1.61358,5.18009-10.406,9.59251-14.4,3.35094-3.03318,8.52074-2.45334,12.82574-3.83026,5.01582-1.60428,8.77937-5.94959,10.92379-10.75939,1.63-3.65594,1.60645-13.223,4.69084-15.20283C294.20755,409.02219,303.00386,412.96943,306.58925,414.56777Z"
           fill="#2f2e41"
           id="path42"
           transform="translate(-61.96814 -72.38605)" />
        <path
           d="M159.2397,472.56207a15.61579,15.61579,0,0,1,8.128.02069c8.44618,2.26753,27.38021,8.27035,31.43989,17.40462,5.26306,11.84188,23.68376,30.26258,23.68376,30.26258s24.99952,24.99952,19.73646,42.10446-24.99952,36.8414-24.99952,36.8414,5.26306,81.57738-21.05223,102.62961-36.8414,6.57882-36.8414,26.31528S77.75732,809.7181,61.96814,771.56094c0,0,7.89459-71.05128,5.26306-96.0508C64.63762,650.87116,68.43448,497.14537,159.2397,472.56207Z"
           fill="#d0cde1"
           id="path44"
           transform="translate(-61.96814 -72.38605)" />
        <path
           d="M201.43916,505.77655s80.26162,59.2094,65.78821,84.20892c0,0-48.68328,23.68375-59.20939,22.368s-51.31481-47.36751-61.84092-51.31481S130.38789,486.04009,201.43916,505.77655Z"
           fill="#d0cde1"
           id="path46"
           transform="translate(-61.96814 -72.38605)" />
      </g>
      <rect
         x="748.06371"
         y="744.45791"
         width="283"
         height="2"
         fill="#3f3d56"
         id="rect90" />
    </g>
    <g
       id="g3876"
       transform="translate(-657.20722,-974.70029)"
       style="opacity:0.73">
      <circle
         cx="150.53395"
         cy="254.8725"
         r="24.561029"
         fill="#ffb8b8"
         id="circle3773" />
      <polygon
         points="108.295,525.21 67.543,549.197 73.762,559.763 117.474,540.803 "
         fill="#ffb8b8"
         id="polygon3775" />
      <path
         d="m 206.09566,694.4297 12.24734,20.80688 5e-4,8.4e-4 A 15.38605,15.38605 0 0 1 212.888,736.302 l -0.43091,0.25362 -20.05239,-34.06705 z"
         transform="translate(-136.68918,-149.95753)"
         fill="#2f2e41"
         id="path3777" />
      <polygon
         points="139.598,539.972 139.6,587.26 151.86,587.259 157.692,539.971 "
         fill="#ffb8b8"
         id="polygon3779" />
      <path
         d="m 273.16223,733.21466 24.14379,-10e-4 h 0.001 a 15.38605,15.38605 0 0 1 15.38648,15.38623 v 0.5 l -39.53052,0.001 z"
         transform="translate(-136.68918,-149.95753)"
         fill="#2f2e41"
         id="path3781" />
      <path
         d="m 227.00063,708.56723 a 4.49318,4.49318 0 0 1 -3.624,-1.833 L 211.5529,690.67564 a 4.49961,4.49961 0 0 1 1.12451,-6.41016 l 52.614,-35.1416 -31.74659,-83.47461 67.88918,5.60253 2.28662,71.7334 a 36.04579,36.04579 0 0 1 -18.04518,32.4238 l -56.42652,32.55371 a 4.486,4.486 0 0 1 -2.24829,0.60452 z"
         transform="translate(-136.68918,-149.95753)"
         fill="#2f2e41"
         id="path3783" />
      <path
         d="m 276.65933,727.617 a 4.49986,4.49986 0 0 1 -4.48877,-4.33984 l -2.488,-69.88184 30.80835,-1.623 -2.45313,70.38379 a 4.48729,4.48729 0 0 1 -4.1997,4.333 l -16.87281,1.11817 c -0.10233,0.007 -0.20438,0.01 -0.30594,0.01 z"
         transform="translate(-136.68918,-149.95753)"
         fill="#2f2e41"
         id="path3785" />
      <path
         d="m 309.29092,585.12875 c -7.83838,0 -35.21656,-8.8164 -44.72119,-11.959 -1.42188,1.13769 -9.23316,6.97851 -18.35108,5.91113 -5.626,-0.66016 -10.57886,-3.84473 -14.72095,-9.46582 -9.147,-12.41406 2.15064,-65.65137 13.239,-108.126 a 34.26782,34.26782 0 0 1 40.52856,-24.87988 v 0 a 34.57137,34.57137 0 0 1 26.08765,25.37793 c 2.08765,8.49805 0.29175,18.49414 -1.01953,25.79395 -0.61646,3.43164 -1.10352,6.14257 -0.937,7.47461 0.64355,5.14843 4.21875,85.8916 1.91992,89.33984 -0.24487,0.36723 -0.95287,0.53324 -2.02538,0.53324 z"
         transform="translate(-136.68918,-149.95753)"
         fill="#6c63ff"
         id="path3787" />
      <path
         d="m 280.616,585.27177 a 10.74269,10.74269 0 0 0 0.9416,-16.44569 l 0.48534,-97.84356 -23.04478,3.8374 6.76925,94.97037 a 10.80091,10.80091 0 0 0 14.84859,15.48148 z"
         transform="translate(-136.68918,-149.95753)"
         fill="#ffb8b8"
         id="path3789" />
      <path
         d="m 285.946,533.81821 h -24.82183 a 4.51352,4.51352 0 0 1 -4.5,-4.459 l -0.60938,-67.292 a 17.603,17.603 0 1 1 35.20411,0.043 L 290.4457,529.37 a 4.51547,4.51547 0 0 1 -4.4997,4.44821 z"
         transform="translate(-136.68918,-149.95753)"
         fill="#6c63ff"
         id="path3791" />
      <path
         d="m 280.96926,429.28873 c -11.24529,0.0206 -21.85416,-8.868 -23.80286,-19.94323 A 28.67148,28.67148 0 0 1 258.08567,396.33178 34.95394,34.95394 0 0 1 306.021,374.379 c 3.00831,1.36131 5.97145,3.31645 7.3489,6.31741 1.37745,3.00096 0.51535,7.19528 -2.49791,8.54561 -1.96916,0.88242 -4.44023,0.4491 -6.18719,1.71573 -2.50928,1.81937 -1.86334,5.69129 -0.74286,8.58112 1.12048,2.88983 2.38776,6.38691 0.50947,8.85239 -1.75023,2.29739 -5.24872,2.22609 -8.00436,1.36137 -2.75564,-0.86472 -5.47557,-2.31277 -8.34864,-2.01822 -4.1904,0.42961 -7.20172,4.59773 -7.7591,8.77306 -0.55738,4.17533 0.75474,8.34892 2.05018,12.35714 z"
         transform="translate(-136.68918,-149.95753)"
         fill="#2f2e41"
         id="path3793" />
      <path
         d="m 395.68918,750.04247 h -258 a 1,1 0 1 1 0,-2 h 258 a 1,1 0 0 1 0,2 z"
         transform="translate(-136.68918,-149.95753)"
         fill="#cccccc"
         id="path3795" />
      <g
         id="g3898"
         transform="translate(10.348841,-9.65639)">
        <path
           d="m 1706.4221,1418.9045 h -640.8385 a 16.51868,16.51868 0 0 1 -16.5,-16.5 v -395.1538 a 12.10185,12.10185 0 0 1 12.0879,-12.08836 h 649.4535 a 12.31111,12.31111 0 0 1 12.2971,12.29736 v 394.9448 a 16.51867,16.51867 0 0 1 -16.5,16.5 z"
           fill="#f2f2f2"
           id="path3797" />
        <path
           d="m 1685.7023,1398.0722 h -597.2448 c -8.755,0 -15.8775,-6.6699 -15.8775,-14.8682 v -344.105 c 0,-6.08 5.278,-11.0268 11.7656,-11.0268 h 605.2737 c 6.5952,0 11.9607,5.0283 11.9607,11.2085 v 343.9233 c 0,8.1983 -7.1228,14.8682 -15.8777,14.8682 z"
           fill="#ffffff"
           id="path3799" />
        <path
           d="M 1722.6924,1009.3069 H 1048.852 v -8.4004 a 16.57376,16.57376 0 0 1 16.56,-16.54982 h 640.7203 a 16.57368,16.57368 0 0 1 16.5601,16.54982 z"
           fill="#3f3d56"
           id="path3801" />
        <circle
           cx="1078.9474"
           cy="996.85669"
           r="4.2834201"
           fill="#ffffff"
           id="circle3803" />
        <circle
           cx="1095.2062"
           cy="996.85669"
           r="4.2834201"
           fill="#ffffff"
           id="circle3805" />
        <circle
           cx="1111.465"
           cy="996.85669"
           r="4.2834201"
           fill="#ffffff"
           id="circle3807" />
        <path
           d="m 1372.9109,1103.3111 h -116.8081 a 6.56614,6.56614 0 0 1 0,-13.1322 h 116.8081 a 6.56614,6.56614 0 1 1 0,13.1322 z"
           fill="#cccccc"
           id="path3809" />
        <path
           d="M 1518.0571,1103.3111 H 1401.249 a 6.56614,6.56614 0 0 1 0,-13.1322 h 116.8081 a 6.56614,6.56614 0 1 1 0,13.1322 z"
           fill="#cccccc"
           id="path3811" />
        <path
           d="m 1518.0571,1128.1933 h -203.2046 a 6.566135,6.566135 0 1 1 0,-13.1322 h 203.2046 a 6.566135,6.566135 0 1 1 0,13.1322 z"
           fill="#cccccc"
           id="path3813" />
        <path
           d="m 1372.9109,1078.0833 h -116.8081 a 6.56614,6.56614 0 0 1 0,-13.1322 h 116.8081 a 6.56614,6.56614 0 1 1 0,13.1322 z"
           fill="#cccccc"
           id="path3815" />
        <path
           d="m 1437.19,1078.4289 h -33.1763 a 6.56615,6.56615 0 0 1 0,-13.1323 h 33.1763 a 6.56615,6.56615 0 1 1 0,13.1323 z"
           fill="#cccccc"
           id="path3817" />
        <path
           d="m 1289.2791,1128.1933 h -33.1763 a 6.56614,6.56614 0 0 1 0,-13.1322 h 33.1763 a 6.56614,6.56614 0 1 1 0,13.1322 z"
           fill="#cccccc"
           id="path3819" />
        <path
           d="m 1372.9109,1336.3111 h -116.8081 a 6.56614,6.56614 0 0 1 0,-13.1322 h 116.8081 a 6.56614,6.56614 0 1 1 0,13.1322 z"
           fill="#cccccc"
           id="path3821" />
        <path
           d="M 1518.0571,1336.3111 H 1401.249 a 6.56614,6.56614 0 0 1 0,-13.1322 h 116.8081 a 6.56614,6.56614 0 1 1 0,13.1322 z"
           fill="#cccccc"
           id="path3823" />
        <path
           d="m 1518.0571,1361.1933 h -203.2046 a 6.566135,6.566135 0 1 1 0,-13.1322 h 203.2046 a 6.56614,6.56614 0 1 1 0,13.1322 z"
           fill="#cccccc"
           id="path3825" />
        <path
           d="m 1372.9109,1311.0833 h -116.8081 a 6.566135,6.566135 0 0 1 0,-13.1322 h 116.8081 a 6.566135,6.566135 0 1 1 0,13.1322 z"
           fill="#cccccc"
           id="path3827" />
        <path
           d="m 1437.19,1311.4289 h -33.1763 a 6.56615,6.56615 0 0 1 0,-13.1323 h 33.1763 a 6.56615,6.56615 0 0 1 0,13.1323 z"
           fill="#cccccc"
           id="path3829" />
        <path
           d="m 1289.2791,1361.1933 h -33.1763 a 6.566135,6.566135 0 0 1 0,-13.1322 h 33.1763 a 6.56614,6.56614 0 1 1 0,13.1322 z"
           fill="#cccccc"
           id="path3831" />
        <path
           d="m 1342.4043,1265.8184 a 9.39692,9.39692 0 0 1 -6.6236,-2.7101 l -43.9086,-43.3593 a 9.1516,9.1516 0 0 1 0,-13.0234 l 43.7312,-43.1843 a 9.70171,9.70171 0 0 1 13.6435,0.043 v 0 a 9.689,9.689 0 0 1 2e-4,13.6867 l -32.496,32.4966 a 5.41338,5.41338 0 0 0 0,7.6465 l 32.3197,32.3202 a 9.418,9.418 0 0 1 -6.6664,16.0841 z"
           fill="#6c63ff"
           id="path3833"
           style="opacity:0.44627834" />
        <path
           d="m 1412.3699,1265.8184 a 9.418,9.418 0 0 1 -6.6665,-16.0841 l 32.3198,-32.3202 a 5.41338,5.41338 0 0 0 0,-7.6465 l -32.4961,-32.4967 a 9.67776,9.67776 0 0 1 2e-4,-13.6866 v 0 a 9.70169,9.70169 0 0 1 13.6435,-0.043 l 43.7312,43.1843 a 9.15157,9.15157 0 0 1 0,13.0234 l -43.9086,43.3593 a 9.39891,9.39891 0 0 1 -6.6235,2.7101 z"
           fill="#6c63ff"
           id="path3835"
           style="opacity:0.44627834" />
      </g>
    </g>
  </g>
</svg>
